# xmcd
#
# Track frame offsets: 
#        150
#        16622
#        25365
#        41145
#        51675
#        65755
#        81795
#        99490
#        119122
#        144862
#
# Disc length: 2344 seconds
#
# Revision: 2
# Processed by: cddbd v1.5.2PL0 Copyright (c) Steve Scherf et al.
# Submitted via: ExactAudioCopyFreeDBPlugin 1.0
#
DISCID=8c09260a
DTITLE=B.B. King - B.B. King
DYEAR=2000
DGENRE=Blues
TTITLE0=The Other Night Blues
TTITLE1=A New Way Of Drivin
TTITLE2=Walkin and Cryin
TTITLE3=Long Nights
TTITLE4=That Evil Child
TTITLE5=Sweet Sixteen
TTITLE6=Guess Who
TTITLE7=Outside Help
TTITLE8=I'm Willing To Run All The Way
TTITLE9=Save A Seat For Me
EXTD=
EXTT0=
EXTT1=
EXTT2=
EXTT3=
EXTT4=
EXTT5=
EXTT6=
EXTT7=
EXTT8=
EXTT9=
PLAYORDER=
